# xmcd
#
# Track frame offsets:
# 150
# 13100
# 28814
# 45704
# 59473
# 71225
# 83664
# 96596
# 109677
# 123683
# 134727
# 150055
# 162186
# 177106
# 190039
#
# Disc length: 2716 seconds
#
#
# Revision: 0
# Processed by: cddbd v1.5.1PL0 Copyright (c) Steve Scherf et al.
# Submitted via: FreeRIP 2.92 
#
DISCID=cc0a9a0f
DTITLE=Sammy-Jo - The Best Country Songs
DYEAR=2002
DGENRE=Country
TTITLE0=Country Roads
TTITLE1=Blancket On The Ground
TTITLE2=Together Again
TTITLE3=Driving My Life Away
TTITLE4=On The Road Again
TTITLE5=Okee From Muskoghee
TTITLE6=I Fall To Pieces
TTITLE7=One More Last Chance
TTITLE8=Rosegarden
TTITLE9=Just Out Of Reach
TTITLE10=C'est La Vie
TTITLE11=What I've Got In Mind
TTITLE12=Bobby Mc Gee
TTITLE13=He Thinks I Still Care
TTITLE14=Help Me Make It Trough The Night
EXTD=Promo CD: Annick Luyck Lead Singer Belgium\nMore Info and Reservation\nPhone: +32-11-59.78.82\nGSM: +32-496-978437
EXTT0=
EXTT1=
EXTT2=
EXTT3=
EXTT4=
EXTT5=
EXTT6=
EXTT7=
EXTT8=
EXTT9=
EXTT10=
EXTT11=
EXTT12=
EXTT13=
EXTT14=
PLAYORDER=
